<svg width="200" height="200" xmlns="http://www.w3.org/2000/svg">
 <g>
  <title>Layer 1</title>
  <rect fill="#0e1a35" stroke="#000" x="0" y="0" width="200" height="200" id="svg_3" rx="35" stroke-width="0"/>
  <g id="a"/>
  <g stroke="null" id="b">
   <g stroke="null" id="c">
    <path stroke="null" class="e" d="m65.84222,96.61335l0,-44.31771l19.59156,0c6.15423,0 12.08996,0.98322 18.06211,2.5855c1.01964,0.32774 2.00286,0.6919 3.02249,1.09246l10.48768,-10.48768c-1.1653,-0.54624 -2.29418,-1.09246 -3.53231,-1.56587c-8.44841,-2.91324 -17.84361,-4.51553 -28.5862,-4.51553l-36.12421,0l0,74.2877l17.07889,-17.07889l0,-0.00001z" fill="#5584ff" id="svg_1"/>
    <path stroke="null" class="d" d="m147.04888,75.74725c-3.0589,-7.28311 -7.28311,-13.583 -12.85468,-19.08174c-4.9161,-4.55194 -10.66975,-8.22991 -17.26097,-11.21599l-10.48768,10.48768c4.58836,1.74794 8.77615,4.11496 12.56336,7.17386c4.40628,3.89646 8.04783,8.88539 10.92466,14.85754c2.69475,6.15423 4.2242,13.40092 4.2242,21.81291s-1.34738,15.98642 -4.04213,21.99499c-2.69475,6.15423 -6.33631,11.14316 -10.56051,14.85754c-4.62477,3.89646 -9.6137,6.77329 -14.96678,8.41199c-5.75365,1.78436 -11.50731,2.5855 -17.26097,2.5855l-21.48517,0l0,-51.09101l-17.07889,17.1153l0,34.52193l13.07318,12.4177l23.01462,0c10.74258,0 20.17421,-1.60228 28.5862,-4.51553c8.04783,-3.24098 14.96678,-7.42877 20.72044,-12.92752c5.57157,-5.31667 9.79578,-11.79864 12.85468,-19.22741c2.69475,-7.42877 4.2242,-15.36736 4.2242,-24.07067s-1.52946,-16.6419 -4.2242,-24.07067l0.03642,-0.03642l0,0.00001z" fill="#fff" id="svg_2"/>
   </g>
  </g>
 </g>

</svg>