<?xml version="1.0" encoding="UTF-8"?><svg xmlns="http://www.w3.org/2000/svg" viewBox="0 0 600 90"><defs><style>.d,.e{fill:#fff;}.e{font-family:SpoqaHanSansNeo-Regular, Spoqa Han Sans Neo;font-size:28px;letter-spacing:-.02em;}.f{fill:#0197d8;}</style></defs><g id="a"/><g id="b"><g id="c"><rect class="f" width="600" height="90" rx="12" ry="12"/><text class="e" transform="translate(212.39 55.52)"><tspan x="0" y="0">Login with Hiworks</tspan></text><g><path class="d" d="M55.12,57.37c-1.58-3.6-3.16-7.21-4.73-10.81-.74-1.7-1.49-3.4-2.23-5.11-.04-.08-.13-.15-.08-.26,.53-.16,2.71-.17,3.38,0l4.19,9.56c.55-1.13,.94-2.19,1.38-3.23,.46-1.08,.9-2.17,1.35-3.25,.44-1.06,.89-2.11,1.34-3.17h2.41l4,9.68c1.44-3.28,2.84-6.47,4.24-9.67h3.38c-.1,.54-.38,.97-.58,1.43-2.12,4.86-4.25,9.72-6.37,14.57-.04,.09-.1,.17-.14,.26h-1.18c-.46-.39-.57-.96-.78-1.48-1.17-2.85-2.34-5.71-3.54-8.55-.09-.22-.21-.44-.15-.81-.35,.76-.62,1.44-.9,2.11-1.05,2.56-2.14,5.1-3.17,7.67-.16,.39-.3,.78-.63,1.06h-1.18Z"/><path class="d" d="M130.99,57.24c-1.32-.15-2.48-.73-3.66-1.31v-3.39c.35,.23,.67,.44,.99,.65,.97,.63,2,1.15,3.13,1.44,.65,.17,1.31,.18,1.96-.04,.07-.02,.14-.04,.21-.07,1.45-.62,1.62-2.04,.35-2.99-.97-.72-2.06-1.24-3.08-1.87-.67-.41-1.32-.85-1.92-1.36-1.08-.92-1.72-2.07-1.66-3.52,.04-1.17,.52-2.13,1.45-2.85,1.23-.95,2.66-1.25,4.17-1.16,1.46,.09,2.85,.5,4.15,1.16,.11,.06,.21,.13,.35,.22v3.15c-.28-.17-.5-.3-.72-.43-1.02-.6-2.05-1.17-3.22-1.41-.64-.13-1.28-.14-1.89,.1-1.09,.42-1.38,1.5-.54,2.34,.64,.63,1.43,1.04,2.2,1.47,1.12,.62,2.23,1.26,3.16,2.15,.74,.71,1.34,1.49,1.58,2.51,.36,1.55-.11,2.86-1.24,3.92-.77,.72-1.7,1.15-2.76,1.29-.18,.14-.43-.03-.61,.13h-1.63c-.23-.18-.52,.02-.75-.13Z"/><path class="d" d="M23.76,32.64l.15,.02c.33,.38,.23,.84,.23,1.27,0,7.15,0,14.3,0,21.44,0,.39-.06,.78,.15,1.19,.47,.23,.99,.1,1.49,.13,.41,.03,.85-.08,1.2,.24-.05,.22-.23,.14-.35,.14-.96,0-1.92,0-2.88,.01v-24.44Z"/><path class="d" d="M82.17,57.23c.3,.04,.64-.17,.91,.14h-.89s0-.09-.02-.14Z"/><path class="d" d="M84.55,57.37c.21-.28,.5-.11,.76-.13-.02,.04-.02,.09-.02,.13h-.74Z"/><path class="d" d="M130.99,57.24c.26,.02,.54-.14,.75,.13h-.74s0-.09-.01-.13Z"/><path class="d" d="M133.37,57.37c.15-.28,.4-.12,.61-.13-.02,.04-.03,.09-.02,.13h-.59Z"/><path class="d" d="M26.99,56.93h-3.08v-24.27h3.11c0,1.14,0,2.28,0,3.43,0,1.18,0,2.35,0,3.53v3.58c.48-.48,.86-.88,1.3-1.22,1.07-.82,2.28-1.24,3.62-1.21,2.66,.06,4.53,1.75,4.98,4.22,.19,1.03,.28,2.08,.28,3.13,0,2.72,0,5.44,0,8.17,0,.22,0,.44,0,.67-.56,.23-1.1,.09-1.63,.11-.51,.03-1.03,0-1.52,0-.19-.23-.11-.46-.11-.67,0-2.94,0-5.88-.01-8.83,0-.78-.09-1.55-.39-2.29-.6-1.47-2-2.24-3.56-1.77-1.19,.35-2.02,1.17-2.8,2.05-.2,.22-.15,.51-.15,.77,0,3.29,0,6.57,0,9.86,0,.24-.02,.49-.03,.73Z"/><path class="d" d="M117.08,52.13c-.4-.21-.66-.58-.98-.88-.69-.66-1.36-1.34-2.03-2-.07,.02-.09,.03-.11,.04-.02,.01-.04,.03-.04,.05,0,2.55,0,5.09,0,7.68h-3.25v-24.28c.49-.13,2.38-.15,3.24-.02v16.09c.21,.06,.27-.1,.39-.12,.07,.29,.23,.51,.45,.72,.68,.65,1.35,1.32,2.01,2,.18,.19,.5,.35,.33,.71Z"/><path class="d" d="M95.81,57.02v-15.8c.49-.19,2.49-.22,3.24-.04v2.15c1.49-1.59,3.13-2.71,5.28-2.54,1.67,.13,3.06,.96,4.28,2.21l-1.92,2.29c-.27-.02-.37-.21-.53-.32-.6-.43-1.24-.78-1.94-1.04-1.82-.66-3.56,.1-4.45,1.72-.49,.9-.71,1.87-.71,2.89,0,2.57,0,5.15,0,7.72,0,.24,.05,.49-.06,.76h-3.19Z"/><path class="d" d="M117.08,52.13c.02-.27-.22-.36-.36-.51-.84-.84-1.69-1.68-2.52-2.5l.1-.42c.55-.78,1.24-1.46,1.86-2.18,1.48-1.71,2.98-3.39,4.48-5.09,.1-.11,.2-.21,.3-.32h4.08c-2.34,2.65-4.6,5.22-6.89,7.82l8.02,8.11h-4.13c-.33-.32-.68-.66-1.02-1.01-1.3-1.3-2.61-2.6-3.91-3.91Z"/><path class="d" d="M41.82,44.28h3.18v12.68c-.51,.2-1.05,.06-1.58,.09-.51,.03-1.03,0-1.53,0-.15-.57-.2-11.23-.07-12.78Z"/><path class="d" d="M40.45,39.22c-.11-1.54,1.39-2.94,2.95-2.91,1.39,.02,2.96,1.14,2.96,2.95,0,1.7-1.36,3.01-3.06,2.97-1.3-.03-2.99-1.19-2.85-3.01Z"/><path class="d" d="M92.25,47.37c-.56-2.8-2.23-4.75-4.82-5.9-1.56-.69-3.21-.84-4.91-.62-1.84,.24-3.45,.93-4.81,2.19-1.44,1.33-2.28,2.96-2.53,4.92-.24,1.97,.05,3.82,1.11,5.49,1.36,2.14,3.31,3.44,5.86,3.78,.28,.16,.63-.05,.91,.14h1.48c.23-.18,.52,.02,.76-.13,.31-.06,.63-.09,.94-.17,2.72-.77,4.71-2.38,5.72-5.06,.57-1.51,.6-3.07,.29-4.63Zm-5.6,6.33c-1.06,.66-2.26,.82-3.48,.7-1.69-.16-3.07-.89-3.98-2.33-.7-1.11-.92-2.34-.76-3.65,.11-.97,.4-1.86,.98-2.65,1.11-1.51,2.65-2.14,4.48-2.07,1.95,.07,3.48,.93,4.54,2.59,.4,.62,.77,1.63,.73,2.74,0,2.11-.83,3.64-2.5,4.68Z"/></g></g></g></svg>