<?xml version="1.0" encoding="UTF-8"?><svg xmlns="http://www.w3.org/2000/svg" viewBox="0 0 28.15 33.29"><defs><style>.d{fill:#fff;}.e{fill:#5584ff;}</style></defs><g id="a"/><g id="b"><g id="c"><path class="e" d="M4.69,15.72V3.55h5.38c1.69,0,3.32,.27,4.96,.71,.28,.09,.55,.19,.83,.3l2.88-2.88c-.32-.15-.63-.3-.97-.43-2.32-.8-4.9-1.24-7.85-1.24H0V20.41l4.69-4.69Z"/><path class="d" d="M26.99,9.99c-.84-2-2-3.73-3.53-5.24-1.35-1.25-2.93-2.26-4.74-3.08l-2.88,2.88c1.26,.48,2.41,1.13,3.45,1.97,1.21,1.07,2.21,2.44,3,4.08,.74,1.69,1.16,3.68,1.16,5.99s-.37,4.39-1.11,6.04c-.74,1.69-1.74,3.06-2.9,4.08-1.27,1.07-2.64,1.86-4.11,2.31-1.58,.49-3.16,.71-4.74,.71H4.69V15.7L0,20.4v9.48l3.59,3.41h6.32c2.95,0,5.54-.44,7.85-1.24,2.21-.89,4.11-2.04,5.69-3.55,1.53-1.46,2.69-3.24,3.53-5.28,.74-2.04,1.16-4.22,1.16-6.61s-.42-4.57-1.16-6.61Z"/></g></g></svg>