<?xml version="1.0" encoding="UTF-8"?><svg xmlns="http://www.w3.org/2000/svg" viewBox="0 0 160.11 49.61"><defs><style>.d{fill:#fff;}.e{fill:#5584ff;}.f{fill:#f6f7fa;}</style></defs><g id="a"/><g id="b"><g id="c"><g><path class="f" d="M6.89,44.78c-.63,.88-1.65,1.32-3.09,1.32H0v-10.59H3.8c1.45,0,2.46,.45,3.09,1.32,.8,1.08,.93,2.5,.93,3.97s-.13,2.89-.93,3.97Zm-1.34-7.13c-.39-.54-1.01-.77-1.9-.77H1.57v7.86H3.65c.89,0,1.51-.23,1.9-.77,.47-.65,.7-1.57,.7-3.16s-.23-2.51-.7-3.16Z"/><path class="f" d="M11.87,46.28c-1.76,0-2.86-.86-2.86-2.4s1.11-2.4,2.86-2.4c1.04,0,1.86,.35,2.13,.97v-1.23c0-1.03-.54-1.62-1.63-1.62-.97,0-1.47,.42-1.58,1.19h-1.5c.11-1.5,1.15-2.42,3.08-2.42,2.11,0,3.13,1.12,3.13,2.85v3.85c0,.38,.07,.78,.18,1.04h-1.53c-.09-.2-.15-.49-.15-.81-.24,.59-1.01,.99-2.13,.99Zm2.15-2.4c0-.78-.61-1.2-1.77-1.2s-1.76,.42-1.76,1.2,.61,1.2,1.76,1.2,1.77-.41,1.77-1.2Z"/><path class="f" d="M19.08,43.8c0,.95,.35,1.17,1.3,1.17h.76v1.19c-.24,.04-.69,.04-1.01,.04-1.77,0-2.53-.51-2.53-2.13v-4.31h-1.09v-1.23h1.09v-2.15h1.49v2.15h2.05v1.23h-2.05v4.04Z"/><path class="f" d="M24.97,46.28c-1.76,0-2.86-.86-2.86-2.4s1.11-2.4,2.86-2.4c1.04,0,1.86,.35,2.13,.97v-1.23c0-1.03-.54-1.62-1.63-1.62-.97,0-1.47,.42-1.58,1.19h-1.5c.11-1.5,1.15-2.42,3.08-2.42,2.11,0,3.13,1.12,3.13,2.85v3.85c0,.38,.07,.78,.18,1.04h-1.53c-.09-.2-.15-.49-.15-.81-.24,.59-1.01,.99-2.13,.99Zm2.15-2.4c0-.78-.61-1.2-1.77-1.2s-1.76,.42-1.76,1.2,.61,1.2,1.76,1.2,1.77-.41,1.77-1.2Z"/><path class="f" d="M38.79,46.1l-2.96-7.4v7.4h-1.55v-10.59h1.73l3.53,8.81,3.53-8.81h1.74v10.59h-1.57v-7.4l-2.94,7.4h-1.5Z"/><path class="f" d="M49.11,46.28c-1.76,0-2.86-.86-2.86-2.4s1.11-2.4,2.86-2.4c1.04,0,1.86,.35,2.13,.97v-1.23c0-1.03-.54-1.62-1.63-1.62-.97,0-1.47,.42-1.58,1.19h-1.5c.11-1.5,1.15-2.42,3.08-2.42,2.11,0,3.13,1.12,3.13,2.85v3.85c0,.38,.07,.78,.18,1.04h-1.53c-.09-.2-.15-.49-.15-.81-.24,.59-1.01,.99-2.13,.99Zm2.15-2.4c0-.78-.61-1.2-1.77-1.2s-1.76,.42-1.76,1.2,.61,1.2,1.76,1.2,1.77-.41,1.77-1.2Z"/><path class="f" d="M60.74,46.1h-1.5v-4.62c0-1.31-.53-1.89-1.5-1.89-1.08,0-1.9,.85-1.9,2.42v4.09h-1.47v-7.56h1.47v1.27c.35-.88,1.12-1.44,2.27-1.44,1.69,0,2.63,1.08,2.63,3.01v4.73Z"/><path class="f" d="M64.9,46.28c-1.76,0-2.86-.86-2.86-2.4s1.11-2.4,2.86-2.4c1.04,0,1.86,.35,2.13,.97v-1.23c0-1.03-.54-1.62-1.63-1.62-.97,0-1.47,.42-1.58,1.19h-1.5c.11-1.5,1.15-2.42,3.08-2.42,2.11,0,3.13,1.12,3.13,2.85v3.85c0,.38,.07,.78,.18,1.04h-1.53c-.09-.2-.15-.49-.15-.81-.24,.59-1.01,.99-2.13,.99Zm2.15-2.4c0-.78-.61-1.2-1.77-1.2s-1.76,.42-1.76,1.2,.61,1.2,1.76,1.2,1.77-.41,1.77-1.2Z"/><path class="f" d="M76.58,38.54v7.85c0,1.82-.93,3.23-3.2,3.23-1.81,0-2.92-.88-3.12-2.32h1.53c.11,.74,.68,1.13,1.59,1.13,1.17,0,1.7-.69,1.7-1.92v-1.58c-.28,.82-1.08,1.35-2.16,1.35-1.86,0-3.03-1.24-3.03-3.96s1.16-3.96,3.03-3.96c1.08,0,1.88,.53,2.16,1.35v-1.18h1.5Zm-3.34,1.07c-1.4,0-1.86,1.05-1.86,2.72s.46,2.71,1.86,2.71,1.84-1.04,1.84-2.71-.45-2.72-1.84-2.72Z"/><path class="f" d="M79.46,42.78c.05,1.42,.61,2.26,1.88,2.26,.95,0,1.51-.46,1.62-1.2h1.53c-.24,1.53-1.34,2.44-3.15,2.44-2.27,0-3.38-1.43-3.38-3.96s1.11-3.96,3.35-3.96,3.34,1.44,3.34,3.96c0,.16,0,.31-.01,.46h-5.17Zm.01-1.13h3.66c-.11-1.27-.64-2.04-1.82-2.04s-1.73,.77-1.84,2.04Z"/><path class="f" d="M92.18,46.1h-1.5v-4.89c0-1.09-.46-1.62-1.36-1.62-1.05,0-1.81,.81-1.81,2.4v4.11h-1.47v-7.56h1.47v1.24c.34-.86,1.04-1.42,2.16-1.42s1.94,.55,2.27,1.51c.42-1.03,1.23-1.51,2.38-1.51,1.62,0,2.53,1.07,2.53,2.9v4.84h-1.5v-4.89c0-1.09-.47-1.62-1.36-1.62-1.05,0-1.8,.84-1.8,2.42v4.09Z"/><path class="f" d="M99.67,42.78c.05,1.42,.61,2.26,1.88,2.26,.95,0,1.51-.46,1.62-1.2h1.53c-.24,1.53-1.34,2.44-3.15,2.44-2.27,0-3.38-1.43-3.38-3.96s1.11-3.96,3.35-3.96,3.34,1.44,3.34,3.96c0,.16,0,.31-.01,.46h-5.17Zm.01-1.13h3.66c-.11-1.27-.64-2.04-1.82-2.04s-1.73,.77-1.84,2.04Z"/><path class="f" d="M112.63,46.1h-1.5v-4.62c0-1.31-.53-1.89-1.5-1.89-1.08,0-1.9,.85-1.9,2.42v4.09h-1.47v-7.56h1.47v1.27c.35-.88,1.12-1.44,2.27-1.44,1.69,0,2.63,1.08,2.63,3.01v4.73Z"/><path class="f" d="M116.23,43.8c0,.95,.35,1.17,1.3,1.17h.76v1.19c-.24,.04-.69,.04-1.01,.04-1.77,0-2.53-.51-2.53-2.13v-4.31h-1.09v-1.23h1.09v-2.15h1.49v2.15h2.05v1.23h-2.05v4.04Z"/><path class="f" d="M125.19,42.13v3.97h-1.57v-10.59h4.12c2.11,0,3.34,1.23,3.34,3.31s-1.23,3.31-3.34,3.31h-2.55Zm2.35-1.36c1.31,0,1.97-.72,1.97-1.94s-.66-1.95-1.97-1.95h-2.35v3.89h2.35Z"/><path class="f" d="M138.73,42.32c0,2.53-1.11,3.96-3.34,3.96s-3.35-1.43-3.35-3.96,1.11-3.96,3.35-3.96,3.34,1.43,3.34,3.96Zm-1.49,0c0-1.68-.46-2.73-1.85-2.73s-1.85,1.05-1.85,2.73,.46,2.73,1.85,2.73,1.85-1.05,1.85-2.73Z"/><path class="f" d="M141.6,42.22v3.88h-1.47v-7.56h1.47v1.27c.32-.96,.93-1.44,2.09-1.44,.23,0,.49,.01,.62,.05l-.03,1.22c-.12-.01-.36-.03-.63-.03-1.27,0-2.05,.89-2.05,2.62Z"/><path class="f" d="M147.43,43.8c0,.95,.35,1.17,1.3,1.17h.76v1.19c-.24,.04-.69,.04-1.01,.04-1.77,0-2.53-.51-2.53-2.13v-4.31h-1.09v-1.23h1.09v-2.15h1.49v2.15h2.05v1.23h-2.05v4.04Z"/><path class="f" d="M153.32,46.28c-1.76,0-2.86-.86-2.86-2.4s1.11-2.4,2.86-2.4c1.04,0,1.86,.35,2.13,.97v-1.23c0-1.03-.54-1.62-1.63-1.62-.97,0-1.47,.42-1.58,1.19h-1.5c.11-1.5,1.15-2.42,3.08-2.42,2.11,0,3.13,1.12,3.13,2.85v3.85c0,.38,.07,.78,.18,1.04h-1.53c-.09-.2-.15-.49-.15-.81-.24,.59-1.01,.99-2.13,.99Zm2.15-2.4c0-.78-.61-1.2-1.77-1.2s-1.76,.42-1.76,1.2,.61,1.2,1.76,1.2,1.77-.41,1.77-1.2Z"/><path class="f" d="M158.63,46.1v-10.59h1.49v10.59h-1.49Z"/></g><path class="d" d="M63.03,31.51V0h5.17l11.86,29.34L91.92,0h5.17V33.29h-2.53l-2.11-1.77V9.76l-9.44,23.52h-5.9l-9.44-23.52v23.52h-2.53l-2.11-1.77Z"/><path class="d" d="M108.19,33.29l-2.11-1.77V0h14.29c3.9,0,6.85,.89,8.86,2.62,1.9,1.77,2.9,4.35,2.9,7.63s-1,5.82-2.95,7.59c-2,1.77-4.9,2.66-8.8,2.66h-9.6v12.78h-2.58Zm11.96-16.29c2.42,0,4.22-.58,5.48-1.73,1.16-1.15,1.79-2.8,1.79-4.92s-.63-3.77-1.79-5.02c-1.27-1.15-3.06-1.77-5.48-1.77h-9.38v13.45h9.38Z"/><path class="e" d="M30.57,15.72V3.55h5.38c1.69,0,3.32,.27,4.96,.71,.28,.09,.55,.19,.83,.3l2.88-2.88c-.32-.15-.63-.3-.97-.43C41.33,.44,38.74,0,35.79,0h-9.91V20.41l4.69-4.69Z"/><path class="d" d="M52.87,9.99c-.84-2-2-3.73-3.53-5.24-1.35-1.25-2.93-2.26-4.74-3.08l-2.88,2.88c1.26,.48,2.41,1.13,3.45,1.97,1.21,1.07,2.21,2.44,3,4.08,.74,1.69,1.16,3.68,1.16,5.99s-.37,4.39-1.11,6.04c-.74,1.69-1.74,3.06-2.9,4.08-1.27,1.07-2.64,1.86-4.11,2.31-1.58,.49-3.16,.71-4.74,.71h-5.91V15.7l-4.69,4.69v9.48l3.59,3.41h6.32c2.95,0,5.54-.44,7.85-1.24,2.21-.89,4.11-2.04,5.69-3.55,1.53-1.46,2.69-3.24,3.53-5.28,.74-2.04,1.16-4.22,1.16-6.61s-.42-4.57-1.16-6.61Z"/></g></g></svg>